<svg id="ico-linkedin" xml:space="preserve" xmlns="http://www.w3.org/2000/svg" viewBox="0 0 512 512" >
<path stroke-width="10" d="M480.4 11.463H29.488c-11 0-20 9-20 20v450.913c0 11 9 20 20 20H480.4c11 0 20-9 20-20V31.463c0-11-9-20-20-20zm-312.775 400.53H99.487V192.338h68.137v219.655zm-33.518-243.974c-21.517 0-35.413-15.241-35.413-34.069 0-19.275 14.344-34.068 36.31-34.068s35.414 14.793 35.862 34.068c0 18.827-13.897 34.069-36.759 34.069zm286.199 243.999h-68.137v-117.38c0-28.241-9.862-47.517-34.517-47.517-18.828 0-30.034 13-34.966 25.551-1.793 4.483-2.241 10.759-2.241 17.034v122.278h-68.137v-145.14c0-27.345-.896-54.782-1.793-74.506h59.172l8.138 35.059h2.345c8.965-14.345 24.931-35.414 61.688-35.414 44.827 0 78.447 30.034 78.447 94.585v125.45zM650.85 131.95c0 18.828-13.896 34.069-36.759 34.069-21.517 0-35.413-15.241-35.413-34.069 0-19.275 14.344-34.068 36.31-34.068s35.412 14.792 35.862 34.068zm-70.379 280.168V192.915h68.137v219.204h-68.137zM690.292 262.845c0-27.345-.896-50.206-1.793-69.93h59.172l3.138 30.482h1.345c8.965-14.345 30.931-35.414 67.688-35.414 44.827 0 78.447 30.034 78.447 94.585v129.55h-68.137v-121.48c0-28.241-9.862-47.517-34.517-47.517-18.828 0-30.034 13-34.966 25.551-1.793 4.483-2.241 10.759-2.241 17.034v126.412h-68.137V262.845z"/>
</svg>